<mxfile host="Electron" agent="Mozilla/5.0 (Windows NT 10.0; Win64; x64) AppleWebKit/537.36 (KHTML, like Gecko) draw.io/27.0.5 Chrome/134.0.6998.205 Electron/35.3.0 Safari/537.36" version="27.0.5">
  <diagram name="Page-1" id="7rnXwdARe8Q4AphvS_06">
    <mxGraphModel dx="872" dy="529" grid="1" gridSize="10" guides="1" tooltips="1" connect="1" arrows="1" fold="1" page="1" pageScale="1" pageWidth="850" pageHeight="1100" math="0" shadow="0">
      <root>
        <mxCell id="0" />
        <mxCell id="1" parent="0" />
        <mxCell id="m6RGypfvRQPFe898f_1H-9" value="&lt;font style=&quot;font-size: 14px;&quot;&gt;CustomUser&lt;/font&gt;" style="swimlane;whiteSpace=wrap;html=1;" vertex="1" parent="1">
          <mxGeometry x="152" y="30" width="250" height="620" as="geometry">
            <mxRectangle x="100" y="170" width="140" height="30" as="alternateBounds" />
          </mxGeometry>
        </mxCell>
        <mxCell id="m6RGypfvRQPFe898f_1H-10" value="" style="whiteSpace=wrap;html=1;aspect=fixed;" vertex="1" parent="m6RGypfvRQPFe898f_1H-9">
          <mxGeometry x="30" y="40" width="30" height="30" as="geometry" />
        </mxCell>
        <mxCell id="m6RGypfvRQPFe898f_1H-11" value="&lt;font style=&quot;font-size: 14px;&quot;&gt;Initiate Purchase&lt;/font&gt;" style="rounded=1;whiteSpace=wrap;html=1;" vertex="1" parent="m6RGypfvRQPFe898f_1H-9">
          <mxGeometry x="60" y="120" width="120" height="60" as="geometry" />
        </mxCell>
        <mxCell id="m6RGypfvRQPFe898f_1H-12" style="edgeStyle=orthogonalEdgeStyle;rounded=0;orthogonalLoop=1;jettySize=auto;html=1;exitX=0.5;exitY=1;exitDx=0;exitDy=0;entryX=0.5;entryY=0;entryDx=0;entryDy=0;" edge="1" parent="m6RGypfvRQPFe898f_1H-9" source="m6RGypfvRQPFe898f_1H-10" target="m6RGypfvRQPFe898f_1H-11">
          <mxGeometry relative="1" as="geometry" />
        </mxCell>
        <mxCell id="m6RGypfvRQPFe898f_1H-13" value="&lt;font style=&quot;font-size: 14px;&quot;&gt;Notify Insufficient Funds&lt;/font&gt;" style="rounded=1;whiteSpace=wrap;html=1;" vertex="1" parent="m6RGypfvRQPFe898f_1H-9">
          <mxGeometry x="65" y="375" width="120" height="60" as="geometry" />
        </mxCell>
        <mxCell id="m6RGypfvRQPFe898f_1H-14" value="&lt;font style=&quot;font-size: 14px;&quot;&gt;Application&lt;/font&gt;" style="swimlane;whiteSpace=wrap;html=1;" vertex="1" parent="1">
          <mxGeometry x="402" y="30" width="250" height="620" as="geometry">
            <mxRectangle x="100" y="170" width="140" height="30" as="alternateBounds" />
          </mxGeometry>
        </mxCell>
        <mxCell id="m6RGypfvRQPFe898f_1H-15" value="&lt;font style=&quot;font-size: 14px;&quot;&gt;Validate ListedCompanies&lt;/font&gt;" style="rounded=1;whiteSpace=wrap;html=1;" vertex="1" parent="m6RGypfvRQPFe898f_1H-14">
          <mxGeometry x="20" y="120" width="200" height="60" as="geometry" />
        </mxCell>
        <mxCell id="m6RGypfvRQPFe898f_1H-16" value="&lt;font style=&quot;font-size: 14px;&quot;&gt;ShareManagement&lt;/font&gt;" style="swimlane;whiteSpace=wrap;html=1;" vertex="1" parent="1">
          <mxGeometry x="652" y="30" width="290" height="620" as="geometry">
            <mxRectangle x="100" y="170" width="140" height="30" as="alternateBounds" />
          </mxGeometry>
        </mxCell>
        <mxCell id="m6RGypfvRQPFe898f_1H-17" value="&lt;font style=&quot;font-size: 14px;&quot;&gt;Check User Funds&lt;/font&gt;" style="rounded=1;whiteSpace=wrap;html=1;" vertex="1" parent="m6RGypfvRQPFe898f_1H-16">
          <mxGeometry x="60" y="120" width="130" height="60" as="geometry" />
        </mxCell>
        <mxCell id="m6RGypfvRQPFe898f_1H-18" value="&lt;font style=&quot;font-size: 14px;&quot;&gt;Funds&lt;/font&gt;&lt;div&gt;&lt;font style=&quot;font-size: 14px;&quot;&gt;Sufficient?&lt;/font&gt;&lt;/div&gt;" style="rhombus;whiteSpace=wrap;html=1;" vertex="1" parent="m6RGypfvRQPFe898f_1H-16">
          <mxGeometry x="67.5" y="250" width="115" height="80" as="geometry" />
        </mxCell>
        <mxCell id="m6RGypfvRQPFe898f_1H-19" style="edgeStyle=orthogonalEdgeStyle;rounded=0;orthogonalLoop=1;jettySize=auto;html=1;exitX=0.5;exitY=1;exitDx=0;exitDy=0;entryX=0.5;entryY=0;entryDx=0;entryDy=0;" edge="1" parent="m6RGypfvRQPFe898f_1H-16" source="m6RGypfvRQPFe898f_1H-17" target="m6RGypfvRQPFe898f_1H-18">
          <mxGeometry relative="1" as="geometry" />
        </mxCell>
        <mxCell id="m6RGypfvRQPFe898f_1H-20" value="&lt;font style=&quot;font-size: 14px;&quot;&gt;Insufficient Funds Error&lt;/font&gt;" style="rounded=1;whiteSpace=wrap;html=1;" vertex="1" parent="m6RGypfvRQPFe898f_1H-16">
          <mxGeometry x="10" y="375" width="120" height="60" as="geometry" />
        </mxCell>
        <mxCell id="m6RGypfvRQPFe898f_1H-21" value="&lt;font style=&quot;font-size: 14px;&quot;&gt;Create ShareHoldings&lt;/font&gt;" style="rounded=1;whiteSpace=wrap;html=1;" vertex="1" parent="m6RGypfvRQPFe898f_1H-16">
          <mxGeometry x="162" y="375" width="120" height="60" as="geometry" />
        </mxCell>
        <mxCell id="m6RGypfvRQPFe898f_1H-22" style="edgeStyle=orthogonalEdgeStyle;rounded=0;orthogonalLoop=1;jettySize=auto;html=1;exitX=0.5;exitY=1;exitDx=0;exitDy=0;entryX=0.5;entryY=0;entryDx=0;entryDy=0;" edge="1" parent="m6RGypfvRQPFe898f_1H-16" source="m6RGypfvRQPFe898f_1H-18" target="m6RGypfvRQPFe898f_1H-20">
          <mxGeometry relative="1" as="geometry" />
        </mxCell>
        <mxCell id="m6RGypfvRQPFe898f_1H-23" value="&lt;font style=&quot;font-size: 14px;&quot;&gt;No&lt;/font&gt;" style="edgeLabel;html=1;align=center;verticalAlign=middle;resizable=0;points=[];" vertex="1" connectable="0" parent="m6RGypfvRQPFe898f_1H-22">
          <mxGeometry x="-0.0016" y="-1" relative="1" as="geometry">
            <mxPoint as="offset" />
          </mxGeometry>
        </mxCell>
        <mxCell id="m6RGypfvRQPFe898f_1H-24" style="edgeStyle=orthogonalEdgeStyle;rounded=0;orthogonalLoop=1;jettySize=auto;html=1;exitX=0.5;exitY=1;exitDx=0;exitDy=0;entryX=0.5;entryY=0;entryDx=0;entryDy=0;" edge="1" parent="m6RGypfvRQPFe898f_1H-16" source="m6RGypfvRQPFe898f_1H-18" target="m6RGypfvRQPFe898f_1H-21">
          <mxGeometry relative="1" as="geometry" />
        </mxCell>
        <mxCell id="m6RGypfvRQPFe898f_1H-25" value="&lt;font style=&quot;font-size: 14px;&quot;&gt;Yes&lt;/font&gt;" style="edgeLabel;html=1;align=center;verticalAlign=middle;resizable=0;points=[];" vertex="1" connectable="0" parent="m6RGypfvRQPFe898f_1H-24">
          <mxGeometry x="0.0468" y="1" relative="1" as="geometry">
            <mxPoint as="offset" />
          </mxGeometry>
        </mxCell>
        <mxCell id="m6RGypfvRQPFe898f_1H-26" value="&lt;font style=&quot;font-size: 14px;&quot;&gt;Update HistoricalPrices&lt;/font&gt;" style="rounded=1;whiteSpace=wrap;html=1;" vertex="1" parent="m6RGypfvRQPFe898f_1H-16">
          <mxGeometry x="162" y="480" width="120" height="60" as="geometry" />
        </mxCell>
        <mxCell id="m6RGypfvRQPFe898f_1H-27" style="edgeStyle=orthogonalEdgeStyle;rounded=0;orthogonalLoop=1;jettySize=auto;html=1;exitX=0.5;exitY=1;exitDx=0;exitDy=0;entryX=0.5;entryY=0;entryDx=0;entryDy=0;" edge="1" parent="m6RGypfvRQPFe898f_1H-16" source="m6RGypfvRQPFe898f_1H-21" target="m6RGypfvRQPFe898f_1H-26">
          <mxGeometry relative="1" as="geometry" />
        </mxCell>
        <mxCell id="m6RGypfvRQPFe898f_1H-28" value="" style="whiteSpace=wrap;html=1;aspect=fixed;" vertex="1" parent="m6RGypfvRQPFe898f_1H-16">
          <mxGeometry x="130" y="580" width="30" height="30" as="geometry" />
        </mxCell>
        <mxCell id="m6RGypfvRQPFe898f_1H-29" style="edgeStyle=orthogonalEdgeStyle;rounded=0;orthogonalLoop=1;jettySize=auto;html=1;exitX=0.5;exitY=1;exitDx=0;exitDy=0;entryX=1;entryY=0.5;entryDx=0;entryDy=0;" edge="1" parent="m6RGypfvRQPFe898f_1H-16" source="m6RGypfvRQPFe898f_1H-26" target="m6RGypfvRQPFe898f_1H-28">
          <mxGeometry relative="1" as="geometry" />
        </mxCell>
        <mxCell id="m6RGypfvRQPFe898f_1H-30" style="edgeStyle=orthogonalEdgeStyle;rounded=0;orthogonalLoop=1;jettySize=auto;html=1;exitX=0;exitY=0.5;exitDx=0;exitDy=0;entryX=1;entryY=0.5;entryDx=0;entryDy=0;" edge="1" parent="1" source="m6RGypfvRQPFe898f_1H-20" target="m6RGypfvRQPFe898f_1H-13">
          <mxGeometry relative="1" as="geometry" />
        </mxCell>
        <mxCell id="m6RGypfvRQPFe898f_1H-31" style="edgeStyle=orthogonalEdgeStyle;rounded=0;orthogonalLoop=1;jettySize=auto;html=1;exitX=1;exitY=0.5;exitDx=0;exitDy=0;entryX=0;entryY=0.5;entryDx=0;entryDy=0;" edge="1" parent="1" source="m6RGypfvRQPFe898f_1H-11" target="m6RGypfvRQPFe898f_1H-15">
          <mxGeometry relative="1" as="geometry" />
        </mxCell>
        <mxCell id="m6RGypfvRQPFe898f_1H-32" style="edgeStyle=orthogonalEdgeStyle;rounded=0;orthogonalLoop=1;jettySize=auto;html=1;exitX=1;exitY=0.5;exitDx=0;exitDy=0;entryX=0;entryY=0.5;entryDx=0;entryDy=0;" edge="1" parent="1" source="m6RGypfvRQPFe898f_1H-15" target="m6RGypfvRQPFe898f_1H-17">
          <mxGeometry relative="1" as="geometry" />
        </mxCell>
      </root>
    </mxGraphModel>
  </diagram>
</mxfile>
